<svg width="57" height="57" viewBox="0 0 57 57" fill="none" xmlns="http://www.w3.org/2000/svg">
<rect width="57" height="57" rx="20" fill="url(#paint0_linear_2837_15)"/>
<path d="M38.8995 19.1005C36.2552 16.4562 32.7395 15 29 15C25.2605 15 21.7448 16.4562 19.1005 19.1005C16.4562 21.7447 15 25.2605 15 29C15 32.7395 16.4562 36.2552 19.1005 38.8995C21.7447 41.5438 25.2605 43 29 43C32.7395 43 36.2552 41.5438 38.8995 38.8995C41.5438 36.2553 43 32.7395 43 29C43 25.2605 41.5438 21.7448 38.8995 19.1005ZM38.7829 36.3642C37.9457 35.7975 37.0693 35.3079 36.1606 34.8991C36.5619 33.3341 36.8002 31.635 36.8597 29.875H41.2184C41.0465 32.2996 40.166 34.5315 38.7829 36.3642ZM16.7816 29.875H21.1403C21.1998 31.635 21.4381 33.3342 21.8394 34.8991C20.9308 35.3079 20.0543 35.7975 19.2171 36.3642C17.834 34.5315 16.9535 32.2996 16.7816 29.875ZM19.2168 21.6361C20.0541 22.2028 20.9305 22.6924 21.8393 23.1012C21.438 24.6661 21.1998 26.3651 21.1403 28.125H16.7816C16.9535 25.7005 17.834 23.4688 19.2168 21.6361ZM34.7218 19.3075C34.4012 18.7063 34.0547 18.1639 33.6863 17.6825C35.1666 18.2978 36.5012 19.1951 37.6225 20.3074C36.9868 20.7251 36.3263 21.0932 35.6453 21.4112C35.3781 20.664 35.0695 19.9594 34.7218 19.3075ZM34.0128 22.0639C32.4153 22.5994 30.7294 22.875 29 22.875C27.2706 22.875 25.5847 22.5994 23.9872 22.0639C25.1063 18.8782 26.9553 16.75 29 16.75C31.0447 16.75 32.8937 18.8782 34.0128 22.0639ZM22.8916 28.125C22.9493 26.575 23.1587 25.0942 23.4897 23.7437C25.2471 24.3258 27.1 24.625 29 24.625C30.9 24.625 32.7529 24.3258 34.5103 23.7437C34.8413 25.0942 35.0507 26.575 35.1084 28.125H22.8916ZM35.1084 29.875C35.0506 31.4251 34.8413 32.906 34.5103 34.2566C32.7527 33.6744 30.8998 33.375 29 33.375C27.1002 33.375 25.2473 33.6744 23.4897 34.2566C23.1587 32.906 22.9493 31.4251 22.8916 29.875H35.1084ZM23.2782 19.3075C22.9305 19.9594 22.622 20.664 22.3547 21.4112C21.6737 21.0932 21.0132 20.725 20.3775 20.3073C21.4987 19.195 22.8333 18.2977 24.3137 17.6825C23.9453 18.1639 23.5988 18.7063 23.2782 19.3075ZM22.3548 36.5891C22.622 37.3362 22.9305 38.0407 23.2782 38.6925C23.5988 39.2937 23.9452 39.8361 24.3137 40.3175C22.8334 39.7022 21.499 38.8051 20.3777 37.6929C21.0135 37.2753 21.6739 36.9072 22.3548 36.5891ZM23.9873 35.9363C25.5849 35.4007 27.2708 35.125 29 35.125C30.7292 35.125 32.4151 35.4007 34.0127 35.9363C32.8936 39.1219 31.0447 41.25 29 41.25C26.9553 41.25 25.1064 39.1219 23.9873 35.9363ZM34.7218 38.6925C35.0694 38.0407 35.378 37.3362 35.6452 36.5891C36.3261 36.9072 36.9865 37.2753 37.6222 37.6929C36.501 38.8051 35.1665 39.7023 33.6863 40.3175C34.0547 39.8361 34.4012 39.2937 34.7218 38.6925ZM36.8597 28.125C36.8002 26.3652 36.5619 24.6661 36.1606 23.1012C37.0694 22.6924 37.9459 22.2028 38.7831 21.6361C40.166 23.4687 41.0464 25.7004 41.2183 28.125H36.8597Z" fill="#A64F74"/>
<defs>
<linearGradient id="paint0_linear_2837_15" x1="52.5" y1="53" x2="5.5" y2="7" gradientUnits="userSpaceOnUse">
<stop stop-color="#FF86BA"/>
<stop offset="1" stop-color="#FEBCD8"/>
</linearGradient>
</defs>
</svg>
